<svg xmlns="http://www.w3.org/2000/svg" xmlns:xlink="http://www.w3.org/1999/xlink" width="500" zoomAndPan="magnify" viewBox="0 0 375 374.999991" height="500" preserveAspectRatio="xMidYMid meet" version="1.0"><defs><clipPath id="892f187f1a"><path d="M 60.714844 56.804688 L 314.214844 56.804688 L 314.214844 278.796875 L 60.714844 278.796875 Z M 60.714844 56.804688 " clip-rule="nonzero"/></clipPath><clipPath id="4bda7655c8"><path d="M 187.464844 56.804688 L 314.214844 278.796875 L 60.714844 278.796875 L 187.464844 56.804688 " clip-rule="nonzero"/></clipPath></defs><path fill="#ffffff" d="M 153.574219 125.953125 L 93.695312 25.152344 L 151.972656 128.730469 Z M 153.574219 125.953125 " fill-opacity="1" fill-rule="nonzero"/><path fill="#ffffff" d="M 126.851562 172.230469 L 128.09375 170.074219 L 6.359375 139.007812 L 126.605469 172.652344 L 126.851562 172.230469 " fill-opacity="1" fill-rule="nonzero"/><path fill="#ffffff" d="M 166.304688 103.90625 L 139.027344 6.371094 L 164.640625 106.78125 Z M 166.304688 103.90625 " fill-opacity="1" fill-rule="nonzero"/><path fill="#ffffff" d="M 136.144531 156.136719 L 25.164062 93.667969 L 134.644531 158.730469 Z M 136.144531 156.136719 " fill-opacity="1" fill-rule="nonzero"/><path fill="#ffffff" d="M 144.257812 142.089844 L 54.933594 54.921875 L 142.664062 144.832031 Z M 144.257812 142.089844 " fill-opacity="1" fill-rule="nonzero"/><path fill="#ffffff" d="M 187.5 67.175781 L 188.363281 68.679688 L 187.5 0.0078125 L 186.640625 68.667969 L 187.5 67.175781 " fill-opacity="1" fill-rule="nonzero"/><path fill="#ffffff" d="M 210.363281 106.78125 L 235.988281 6.371094 L 208.703125 103.914062 Z M 210.363281 106.78125 " fill-opacity="1" fill-rule="nonzero"/><path fill="#ffffff" d="M 256.105469 186.007812 L 257.8125 188.964844 L 374.988281 187.488281 Z M 256.105469 186.007812 " fill-opacity="1" fill-rule="nonzero"/><path fill="#ffffff" d="M 240.355469 158.738281 L 349.84375 93.667969 L 238.855469 156.136719 Z M 240.355469 158.738281 " fill-opacity="1" fill-rule="nonzero"/><path fill="#ffffff" d="M 248.144531 172.230469 L 248.394531 172.648438 L 368.632812 139.007812 L 246.902344 170.074219 L 248.144531 172.230469 " fill-opacity="1" fill-rule="nonzero"/><path fill="#ffffff" d="M 223.039062 128.738281 L 281.320312 25.152344 L 221.429688 125.953125 Z M 223.039062 128.738281 " fill-opacity="1" fill-rule="nonzero"/><path fill="#ffffff" d="M 232.328125 144.832031 L 320.078125 54.929688 L 230.75 142.097656 Z M 232.328125 144.832031 " fill-opacity="1" fill-rule="nonzero"/><path fill="#ffffff" d="M 118.886719 186.015625 L 0.0078125 187.488281 L 117.191406 188.960938 Z M 118.886719 186.015625 " fill-opacity="1" fill-rule="nonzero"/><path fill="#ffffff" d="M 276.191406 277.261719 L 320.0625 320.078125 L 278.292969 277.261719 Z M 276.191406 277.261719 " fill-opacity="1" fill-rule="nonzero"/><path fill="#ffffff" d="M 238.195312 277.261719 L 281.328125 349.847656 L 240.480469 277.261719 Z M 238.195312 277.261719 " fill-opacity="1" fill-rule="nonzero"/><path fill="#ffffff" d="M 210.429688 277.261719 L 235.988281 368.644531 L 212.671875 277.261719 Z M 210.429688 277.261719 " fill-opacity="1" fill-rule="nonzero"/><path fill="#ffffff" d="M 292.507812 249.0625 L 349.84375 281.320312 L 290.921875 246.328125 Z M 292.507812 249.0625 " fill-opacity="1" fill-rule="nonzero"/><path fill="#ffffff" d="M 270.5 210.960938 L 368.632812 235.988281 L 268.84375 208.082031 Z M 270.5 210.960938 " fill-opacity="1" fill-rule="nonzero"/><path fill="#ffffff" d="M 187.5 277.261719 L 186.28125 277.261719 L 187.5 374.988281 L 188.71875 277.261719 L 187.5 277.261719 " fill-opacity="1" fill-rule="nonzero"/><path fill="#ffffff" d="M 84.082031 246.320312 L 25.160156 281.320312 L 82.5 249.054688 Z M 84.082031 246.320312 " fill-opacity="1" fill-rule="nonzero"/><path fill="#ffffff" d="M 96.707031 277.261719 L 54.933594 320.078125 L 98.804688 277.261719 Z M 96.707031 277.261719 " fill-opacity="1" fill-rule="nonzero"/><path fill="#ffffff" d="M 106.171875 208.058594 L 6.355469 235.984375 L 104.5 210.9375 Z M 106.171875 208.058594 " fill-opacity="1" fill-rule="nonzero"/><path fill="#ffffff" d="M 134.527344 277.261719 L 93.679688 349.847656 L 136.796875 277.261719 Z M 134.527344 277.261719 " fill-opacity="1" fill-rule="nonzero"/><path fill="#ffffff" d="M 162.328125 277.261719 L 139.019531 368.644531 L 164.578125 277.261719 Z M 162.328125 277.261719 " fill-opacity="1" fill-rule="nonzero"/><path fill="#ffffff" d="M 187.5 277.261719 L 187.5 275.304688 L 69.597656 275.304688 L 128.542969 173.210938 L 187.5 71.085938 L 246.453125 173.210938 L 305.402344 275.304688 L 187.5 275.304688 L 187.5 279.214844 L 312.175781 279.214844 L 249.835938 171.253906 L 187.5 63.265625 L 125.15625 171.253906 L 62.820312 279.214844 L 187.5 279.214844 L 187.5 277.261719 " fill-opacity="1" fill-rule="nonzero"/><g clip-path="url(#892f187f1a)"><g clip-path="url(#4bda7655c8)"><path stroke-linecap="butt" transform="matrix(0.749827, 0, 0, 0.750436, 60.715748, 56.803429)" fill="none" stroke-linejoin="miter" d="M 169.037871 0.00167693 L 338.076948 295.819393 L -0.00120556 295.819393 L 169.037871 0.00167693 " stroke="#ffffff" stroke-width="20" stroke-opacity="1" stroke-miterlimit="4"/></g></g><path fill="#ffffff" d="M 245.398438 221.628906 C 253.835938 190.09375 232.90625 156.417969 202.074219 149.222656 C 202.050781 149.222656 202.027344 149.199219 202.003906 149.199219 C 170.449219 140.769531 136.753906 161.683594 129.574219 192.496094 C 129.574219 192.519531 129.574219 192.539062 129.550781 192.539062 C 125.636719 207.445312 128.316406 224.796875 136.144531 237.535156 C 136.167969 237.558594 136.167969 237.582031 136.191406 237.605469 C 144.164062 250.925781 157.144531 260.894531 172.523438 264.878906 C 172.617188 264.902344 172.6875 264.925781 172.78125 264.949219 C 204.359375 273.496094 238.199219 252.558594 245.398438 221.675781 C 245.398438 221.652344 245.398438 221.652344 245.398438 221.628906 Z M 241.507812 217.738281 L 202.050781 194.917969 C 202.003906 194.894531 201.980469 194.871094 201.933594 194.847656 L 195.738281 191.261719 L 235.75 180.617188 C 241.785156 191.304688 244.070312 205.304688 241.507812 217.738281 Z M 201.632812 208.960938 L 196.15625 218.4375 L 185.621094 221.234375 L 176.136719 215.761719 L 173.339844 205.234375 L 178.816406 195.753906 L 189.351562 192.960938 L 198.835938 198.433594 Z M 233.210938 176.472656 L 182.125 190.074219 L 202.84375 154.277344 C 215.382812 157.910156 226.078125 165.898438 233.210938 176.472656 Z M 198.136719 153.113281 L 175.296875 192.539062 C 175.273438 192.585938 175.25 192.609375 175.226562 192.65625 L 171.640625 198.851562 L 160.988281 158.886719 C 171.6875 152.832031 185.691406 150.550781 198.136719 153.113281 Z M 156.839844 161.402344 L 170.449219 212.453125 L 134.632812 191.75 C 138.265625 179.21875 146.261719 168.53125 156.839844 161.402344 Z M 133.464844 196.453125 L 179.238281 222.933594 L 139.246094 233.578125 C 133.1875 222.886719 130.902344 208.890625 133.464844 196.453125 Z M 141.761719 237.722656 L 192.847656 224.121094 L 172.128906 259.917969 C 159.589844 256.285156 148.894531 248.296875 141.761719 237.722656 Z M 176.835938 261.082031 L 199.675781 221.652344 C 199.699219 221.628906 199.722656 221.582031 199.722656 221.558594 L 203.308594 215.339844 L 213.960938 255.328125 C 203.285156 261.363281 189.28125 263.644531 176.835938 261.082031 Z M 218.132812 252.789062 L 204.546875 201.742188 L 240.363281 222.445312 C 236.707031 234.972656 228.710938 245.664062 218.132812 252.789062 Z M 218.132812 252.789062 " fill-opacity="1" fill-rule="nonzero"/></svg>