<svg xmlns="http://www.w3.org/2000/svg" xmlns:xlink="http://www.w3.org/1999/xlink" width="540" zoomAndPan="magnify" viewBox="0 0 404.88 104.999996" height="140" preserveAspectRatio="xMidYMid meet" version="1.0"><defs><g/><clipPath id="8217b9c4c2"><path d="M 62 0.015625 L 64 0.015625 L 64 20 L 62 20 Z M 62 0.015625 " clip-rule="nonzero"/></clipPath><clipPath id="d08a736507"><path d="M 82 52 L 115.460938 52 L 115.460938 53 L 82 53 Z M 82 52 " clip-rule="nonzero"/></clipPath><clipPath id="dc5286938f"><path d="M 10.496094 52 L 44 52 L 44 53 L 10.496094 53 Z M 10.496094 52 " clip-rule="nonzero"/></clipPath><clipPath id="34859ef625"><path d="M 62 77 L 64 77 L 64 104.980469 L 62 104.980469 Z M 62 77 " clip-rule="nonzero"/></clipPath><clipPath id="ab58b31b4c"><path d="M 47.273438 44 L 78 44 L 78 74 L 47.273438 74 Z M 47.273438 44 " clip-rule="nonzero"/></clipPath></defs><g fill="#212932" fill-opacity="1"><g transform="translate(155.755014, 76.707178)"><g><path d="M 4.328125 0.5 L 4.328125 1.3125 L 2.59375 1.3125 L 2.59375 -5.609375 L 13.921875 -5.609375 L 13.921875 1.3125 L 12.1875 1.3125 L 12.1875 0.5 Z M 4.140625 -8.734375 L 12.375 -8.734375 C 10.945312 -9.679688 9.578125 -10.816406 8.265625 -12.140625 C 6.941406 -10.816406 5.566406 -9.679688 4.140625 -8.734375 Z M 12.1875 -0.890625 L 12.1875 -4.203125 L 4.328125 -4.203125 L 4.328125 -0.890625 Z M 0.859375 -8.65625 C 3.222656 -9.9375 5.328125 -11.46875 7.171875 -13.25 L 9.34375 -13.25 C 11.1875 -11.46875 13.289062 -9.9375 15.65625 -8.65625 L 14.921875 -7.203125 C 14.179688 -7.609375 13.472656 -8.023438 12.796875 -8.453125 L 12.796875 -7.328125 L 3.71875 -7.328125 L 3.71875 -8.453125 C 3.039062 -8.023438 2.332031 -7.609375 1.59375 -7.203125 Z M 0.859375 -8.65625 "/></g></g></g><g fill="#212932" fill-opacity="1"><g transform="translate(174.740436, 76.707178)"><g><path d="M 6.46875 -1.296875 L 6.46875 0 L 4.859375 0 L 4.859375 -6.921875 L 11.65625 -6.921875 L 11.65625 -1.296875 Z M 6.46875 -2.59375 L 10.046875 -2.59375 L 10.046875 -5.609375 L 6.46875 -5.609375 Z M 13.3125 -1.296875 L 13.3125 -11.453125 L 3.203125 -11.453125 L 3.203125 1.140625 L 1.5 1.140625 L 1.5 -12.90625 L 15.015625 -12.90625 L 15.015625 -1.296875 C 15.015625 -0.222656 14.898438 0.4375 14.671875 0.6875 C 14.453125 0.9375 13.851562 1.0625 12.875 1.0625 C 12.550781 1.0625 11.65625 1.03125 10.1875 0.96875 L 10.125 -0.53125 C 11.5625 -0.476562 12.34375 -0.453125 12.46875 -0.453125 C 12.875 -0.453125 13.113281 -0.488281 13.1875 -0.5625 C 13.269531 -0.632812 13.3125 -0.878906 13.3125 -1.296875 Z M 4.171875 -8.53125 L 4.171875 -9.90625 L 12.34375 -9.90625 L 12.34375 -8.53125 Z M 4.171875 -8.53125 "/></g></g></g><g fill="#212932" fill-opacity="1"><g transform="translate(193.725858, 76.707178)"><g><path d="M 12.875 -8.546875 L 12.875 -7.328125 L 3.640625 -7.328125 L 3.640625 -8.546875 C 3.023438 -8.160156 2.265625 -7.710938 1.359375 -7.203125 L 0.609375 -8.65625 C 3.054688 -9.976562 5.242188 -11.507812 7.171875 -13.25 L 9.34375 -13.25 C 11.269531 -11.507812 13.457031 -9.976562 15.90625 -8.65625 L 15.15625 -7.203125 C 14.25 -7.710938 13.488281 -8.160156 12.875 -8.546875 Z M 12.578125 -8.734375 C 11.066406 -9.710938 9.628906 -10.847656 8.265625 -12.140625 C 6.890625 -10.847656 5.445312 -9.710938 3.9375 -8.734375 Z M 12.6875 -3.890625 C 13.539062 -2.421875 14.410156 -0.851562 15.296875 0.8125 L 13.78125 1.453125 C 13.707031 1.335938 13.441406 0.835938 12.984375 -0.046875 C 9.128906 0.472656 5.425781 0.796875 1.875 0.921875 L 1.796875 -0.53125 C 1.835938 -0.53125 2.144531 -0.539062 2.71875 -0.5625 C 3.300781 -0.582031 3.75 -0.601562 4.0625 -0.625 C 4.625 -1.6875 5.179688 -2.890625 5.734375 -4.234375 L 1.390625 -4.234375 L 1.390625 -5.6875 L 15.125 -5.6875 L 15.125 -4.234375 L 7.578125 -4.234375 C 7.097656 -3.023438 6.578125 -1.867188 6.015625 -0.765625 C 7.992188 -0.898438 10.070312 -1.109375 12.25 -1.390625 C 11.851562 -2.117188 11.507812 -2.726562 11.21875 -3.21875 Z M 12.6875 -3.890625 "/></g></g></g><g fill="#212932" fill-opacity="1"><g transform="translate(212.711283, 76.707178)"><g><path d="M 12.65625 -0.71875 L 15.796875 -0.71875 L 15.796875 0.8125 L 6.890625 0.8125 L 6.890625 -0.71875 L 10.9375 -0.71875 L 10.9375 -8.453125 L 7.53125 -8.453125 L 7.53125 -9.953125 L 10.9375 -9.953125 L 10.9375 -13.109375 L 12.65625 -13.109375 L 12.65625 -9.953125 L 15.546875 -9.953125 L 15.546875 -8.453125 L 12.65625 -8.453125 Z M 4.859375 -10.8125 L 7.03125 -10.8125 L 7.03125 -9.25 C 6.625 -8.238281 6.148438 -7.351562 5.609375 -6.59375 C 6.546875 -5.6875 7.421875 -4.789062 8.234375 -3.90625 L 7.09375 -2.8125 C 6.40625 -3.59375 5.648438 -4.390625 4.828125 -5.203125 L 4.828125 1.34375 L 3.125 1.34375 L 3.125 -4.03125 C 2.414062 -3.4375 1.6875 -2.929688 0.9375 -2.515625 L 0.53125 -4.3125 C 2.71875 -5.5625 4.269531 -7.207031 5.1875 -9.25 L 0.96875 -9.25 L 0.96875 -10.8125 L 3.15625 -10.8125 L 3.15625 -13.21875 L 4.859375 -13.21875 Z M 4.859375 -10.8125 "/></g></g></g><g fill="#212932" fill-opacity="1"><g transform="translate(231.696703, 76.707178)"><g><path d="M 7.015625 -4.703125 L 7.015625 -7.171875 L 9.5 -7.171875 L 9.5 -4.703125 Z M 7.015625 -4.703125 "/></g></g></g><g fill="#212932" fill-opacity="1"><g transform="translate(250.682122, 76.707178)"><g><path d="M 8.8125 -10.703125 L 8.8125 -13.03125 L 9.921875 -13.03125 L 9.921875 -10.703125 Z M 10.546875 -10.703125 L 10.546875 -13.03125 L 11.65625 -13.03125 L 11.65625 -10.703125 Z M 5.53125 -12.421875 C 5.5 -12.253906 5.429688 -11.960938 5.328125 -11.546875 C 5.222656 -11.128906 5.050781 -10.566406 4.8125 -9.859375 L 11.65625 -9.859375 L 11.65625 -8.109375 L 9.15625 -8.109375 C 8.96875 -6.335938 8.582031 -4.941406 8 -3.921875 C 7.425781 -2.898438 6.789062 -2.097656 6.09375 -1.515625 C 5.394531 -0.941406 4.734375 -0.492188 4.109375 -0.171875 C 3.484375 0.148438 2.929688 0.382812 2.453125 0.53125 L 2.453125 -1.328125 C 3.160156 -1.585938 3.828125 -1.9375 4.453125 -2.375 C 5.085938 -2.820312 5.691406 -3.484375 6.265625 -4.359375 C 6.835938 -5.242188 7.21875 -6.492188 7.40625 -8.109375 L 4.15625 -8.109375 C 3.59375 -7.085938 3.035156 -6.316406 2.484375 -5.796875 C 1.929688 -5.273438 1.472656 -4.914062 1.109375 -4.71875 L 1.109375 -6.84375 C 1.515625 -7.226562 1.867188 -7.660156 2.171875 -8.140625 C 2.472656 -8.617188 2.773438 -9.226562 3.078125 -9.96875 C 3.378906 -10.71875 3.613281 -11.535156 3.78125 -12.421875 Z M 5.53125 -12.421875 "/></g></g></g><g fill="#212932" fill-opacity="1"><g transform="translate(265.879354, 76.707178)"><g><path d="M 11.234375 -8.859375 C 10.796875 -7.265625 10.140625 -5.863281 9.265625 -4.65625 C 8.390625 -3.457031 7.476562 -2.535156 6.53125 -1.890625 C 5.59375 -1.242188 4.703125 -0.785156 3.859375 -0.515625 C 3.023438 -0.242188 2.207031 -0.0664062 1.40625 0.015625 L 1.40625 -1.734375 C 2.0625 -1.828125 2.742188 -1.972656 3.453125 -2.171875 C 4.160156 -2.378906 4.898438 -2.773438 5.671875 -3.359375 C 6.453125 -3.941406 7.171875 -4.671875 7.828125 -5.546875 C 8.484375 -6.429688 9.023438 -7.535156 9.453125 -8.859375 Z M 1.40625 -10.03125 L 1.40625 -11.75 L 5.359375 -11.75 L 5.359375 -10.03125 Z M 1.40625 -6.109375 L 1.40625 -7.84375 L 5.359375 -7.84375 L 5.359375 -6.109375 Z M 1.40625 -6.109375 "/></g></g></g><g fill="#212932" fill-opacity="1"><g transform="translate(280.657466, 76.707178)"><g><path d="M 1.625 -7.984375 L 1.625 -9.484375 L 8.5625 -9.484375 L 8.046875 -1.59375 L 9.8125 -1.59375 L 9.8125 -0.09375 L 1.15625 -0.09375 L 1.15625 -1.59375 L 6.546875 -1.59375 L 6.953125 -7.984375 Z M 1.625 -7.984375 "/></g></g></g><g fill="#212932" fill-opacity="1"><g transform="translate(294.017024, 76.707178)"><g><path d="M 5.703125 -12.359375 C 5.597656 -11.878906 5.488281 -11.457031 5.375 -11.09375 L 11.03125 -11.09375 L 11.03125 -9.03125 C 10.90625 -7.613281 10.609375 -6.382812 10.140625 -5.34375 C 9.671875 -4.300781 9.082031 -3.425781 8.375 -2.71875 C 7.675781 -2.019531 6.957031 -1.445312 6.21875 -1 C 5.488281 -0.550781 4.804688 -0.207031 4.171875 0.03125 C 3.535156 0.28125 2.972656 0.460938 2.484375 0.578125 L 2.484375 -1.1875 C 3.054688 -1.34375 3.632812 -1.546875 4.21875 -1.796875 C 4.800781 -2.054688 5.457031 -2.457031 6.1875 -3 C 6.914062 -3.539062 7.59375 -4.285156 8.21875 -5.234375 L 4.203125 -5.234375 L 4.203125 -6.875 L 8.875 -6.875 C 9.101562 -7.5625 9.226562 -8.414062 9.25 -9.4375 L 4.78125 -9.4375 C 4.050781 -8.101562 3.382812 -7.140625 2.78125 -6.546875 C 2.1875 -5.953125 1.691406 -5.503906 1.296875 -5.203125 L 1.296875 -7.4375 C 1.703125 -7.875 2.054688 -8.300781 2.359375 -8.71875 C 2.660156 -9.144531 2.957031 -9.6875 3.25 -10.34375 C 3.539062 -11 3.773438 -11.671875 3.953125 -12.359375 Z M 5.703125 -12.359375 "/></g></g></g><g fill="#212932" fill-opacity="1"><g transform="translate(308.956337, 76.707178)"><g><path d="M 11.40625 -2.265625 C 10.039062 -0.960938 8.4375 -0.144531 6.59375 0.1875 L 6.59375 -11.875 L 8.28125 -11.875 L 8.28125 -2.234375 C 9.351562 -2.710938 10.394531 -3.453125 11.40625 -4.453125 Z M 1.21875 -0.15625 C 1.414062 -0.582031 1.632812 -1.144531 1.875 -1.84375 C 2.113281 -2.550781 2.320312 -3.382812 2.5 -4.34375 C 2.675781 -5.3125 2.765625 -6.363281 2.765625 -7.5 L 2.765625 -11.6875 L 4.453125 -11.6875 L 4.453125 -7.5 C 4.441406 -5.832031 4.3125 -4.410156 4.0625 -3.234375 C 3.8125 -2.066406 3.5 -1.039062 3.125 -0.15625 Z M 1.21875 -0.15625 "/></g></g></g><g fill="#212932" fill-opacity="1"><g transform="translate(324.121329, 76.707178)"><g><path d="M 1.828125 0.453125 L 1.828125 -12.296875 L 3.625 -12.296875 L 3.625 -7.90625 L 10.375 -7.90625 L 10.375 -6.140625 L 3.625 -6.140625 L 3.625 0.453125 Z M 1.828125 0.453125 "/></g></g></g><path fill="#000000" d="M 142.925781 53.65625 L 360.347656 53.65625 L 360.347656 56.132812 L 142.925781 56.132812 Z M 142.925781 53.65625 " fill-opacity="1" fill-rule="nonzero"/><g fill="#000000" fill-opacity="1"><g transform="translate(142.926509, 51.177206)"><g><path d="M 20.1875 -5.71875 C 20.1875 -5.601562 20.179688 -5.394531 20.171875 -5.09375 C 20.160156 -4.800781 20.132812 -4.472656 20.09375 -4.109375 C 20.0625 -3.753906 20.015625 -3.410156 19.953125 -3.078125 C 19.898438 -2.742188 19.828125 -2.507812 19.734375 -2.375 C 19.597656 -2.1875 19.351562 -1.957031 19 -1.6875 C 18.65625 -1.414062 18.273438 -1.148438 17.859375 -0.890625 C 17.441406 -0.640625 17.03125 -0.421875 16.625 -0.234375 C 16.21875 -0.0546875 15.894531 0.0390625 15.65625 0.0625 C 15.132812 0.113281 14.601562 0.160156 14.0625 0.203125 C 13.519531 0.242188 13.003906 0.320312 12.515625 0.4375 C 12.515625 0.476562 12.476562 0.5 12.40625 0.5 C 10.894531 0.5 9.53125 0.234375 8.3125 -0.296875 C 7.09375 -0.835938 5.957031 -1.628906 4.90625 -2.671875 C 4.695312 -2.890625 4.472656 -3.109375 4.234375 -3.328125 C 4.003906 -3.546875 3.800781 -3.773438 3.625 -4.015625 C 3.457031 -4.265625 3.285156 -4.582031 3.109375 -4.96875 C 2.929688 -5.351562 2.773438 -5.773438 2.640625 -6.234375 C 2.503906 -6.691406 2.378906 -7.128906 2.265625 -7.546875 C 2.148438 -7.972656 2.050781 -8.332031 1.96875 -8.625 C 1.875 -8.875 1.769531 -9.195312 1.65625 -9.59375 C 1.539062 -10 1.484375 -10.335938 1.484375 -10.609375 C 1.484375 -10.972656 1.507812 -11.335938 1.5625 -11.703125 C 1.625 -12.078125 1.691406 -12.4375 1.765625 -12.78125 C 1.960938 -13.8125 2.207031 -14.738281 2.5 -15.5625 C 2.789062 -16.382812 3.175781 -17.125 3.65625 -17.78125 C 4.144531 -18.4375 4.722656 -19.03125 5.390625 -19.5625 C 6.054688 -20.09375 6.851562 -20.601562 7.78125 -21.09375 C 8.519531 -21.4375 9.242188 -21.722656 9.953125 -21.953125 C 10.660156 -22.191406 11.429688 -22.3125 12.265625 -22.3125 C 13.191406 -22.3125 14.148438 -22.191406 15.140625 -21.953125 C 16.140625 -21.722656 17.019531 -21.335938 17.78125 -20.796875 C 17.976562 -20.660156 18.195312 -20.488281 18.4375 -20.28125 C 18.675781 -20.082031 18.796875 -19.867188 18.796875 -19.640625 C 18.796875 -19.503906 18.707031 -19.273438 18.53125 -18.953125 C 18.363281 -18.640625 18.148438 -18.320312 17.890625 -18 C 17.640625 -17.675781 17.378906 -17.398438 17.109375 -17.171875 C 16.835938 -16.941406 16.625 -16.828125 16.46875 -16.828125 C 16.175781 -16.828125 15.867188 -16.882812 15.546875 -17 C 15.234375 -17.113281 14.914062 -17.234375 14.59375 -17.359375 C 14.28125 -17.484375 13.96875 -17.601562 13.65625 -17.71875 C 13.34375 -17.832031 13.03125 -17.890625 12.71875 -17.890625 C 12.28125 -17.890625 11.789062 -17.804688 11.25 -17.640625 C 10.707031 -17.484375 10.191406 -17.265625 9.703125 -16.984375 C 9.222656 -16.703125 8.78125 -16.363281 8.375 -15.96875 C 7.976562 -15.582031 7.6875 -15.1875 7.5 -14.78125 C 7.457031 -14.6875 7.410156 -14.488281 7.359375 -14.1875 C 7.316406 -13.882812 7.273438 -13.5625 7.234375 -13.21875 C 7.191406 -12.875 7.160156 -12.550781 7.140625 -12.25 C 7.128906 -11.945312 7.125 -11.71875 7.125 -11.5625 C 7.125 -11.175781 7.148438 -10.785156 7.203125 -10.390625 C 7.265625 -10.003906 7.332031 -9.609375 7.40625 -9.203125 C 7.519531 -8.546875 7.671875 -7.972656 7.859375 -7.484375 C 8.046875 -7.003906 8.285156 -6.59375 8.578125 -6.25 C 8.878906 -5.914062 9.257812 -5.628906 9.71875 -5.390625 C 10.175781 -5.148438 10.742188 -4.941406 11.421875 -4.765625 C 11.710938 -4.691406 11.988281 -4.613281 12.25 -4.53125 C 12.507812 -4.457031 12.785156 -4.421875 13.078125 -4.421875 C 13.285156 -4.421875 13.503906 -4.429688 13.734375 -4.453125 C 13.972656 -4.484375 14.195312 -4.535156 14.40625 -4.609375 C 14.625 -4.691406 14.796875 -4.804688 14.921875 -4.953125 C 15.046875 -5.097656 15.097656 -5.296875 15.078125 -5.546875 L 15.078125 -6.5625 C 15.054688 -7.375 14.929688 -7.878906 14.703125 -8.078125 C 14.472656 -8.273438 14.191406 -8.363281 13.859375 -8.34375 C 13.523438 -8.320312 13.179688 -8.28125 12.828125 -8.21875 C 12.484375 -8.164062 12.195312 -8.285156 11.96875 -8.578125 C 11.894531 -8.671875 11.832031 -8.847656 11.78125 -9.109375 C 11.726562 -9.367188 11.695312 -9.640625 11.6875 -9.921875 C 11.675781 -10.203125 11.671875 -10.484375 11.671875 -10.765625 C 11.671875 -11.046875 11.671875 -11.253906 11.671875 -11.390625 C 11.671875 -11.929688 11.742188 -12.285156 11.890625 -12.453125 C 12.035156 -12.617188 12.378906 -12.703125 12.921875 -12.703125 C 13.117188 -12.703125 13.554688 -12.679688 14.234375 -12.640625 C 14.910156 -12.597656 15.628906 -12.550781 16.390625 -12.5 C 17.160156 -12.457031 17.859375 -12.398438 18.484375 -12.328125 C 19.117188 -12.265625 19.46875 -12.203125 19.53125 -12.140625 C 19.625 -12.066406 19.710938 -11.851562 19.796875 -11.5 C 19.890625 -11.15625 19.960938 -10.78125 20.015625 -10.375 C 20.078125 -9.96875 20.117188 -9.570312 20.140625 -9.1875 C 20.171875 -8.8125 20.1875 -8.546875 20.1875 -8.390625 Z M 20.1875 -5.71875 "/></g></g></g><g fill="#000000" fill-opacity="1"><g transform="translate(176.518449, 51.177206)"><g><path d="M 9.734375 0 C 9.097656 0 8.457031 0.0390625 7.8125 0.125 C 7.175781 0.21875 6.535156 0.265625 5.890625 0.265625 C 5.722656 0.265625 5.441406 0.257812 5.046875 0.25 C 4.660156 0.238281 4.28125 0.207031 3.90625 0.15625 C 3.53125 0.113281 3.195312 0.0351562 2.90625 -0.078125 C 2.613281 -0.203125 2.46875 -0.390625 2.46875 -0.640625 C 2.46875 -1.109375 2.523438 -1.582031 2.640625 -2.0625 C 2.753906 -2.550781 2.8125 -3.035156 2.8125 -3.515625 C 2.8125 -4.191406 2.753906 -4.851562 2.640625 -5.5 C 2.523438 -6.15625 2.46875 -6.820312 2.46875 -7.5 C 2.46875 -8.757812 2.53125 -10.003906 2.65625 -11.234375 C 2.78125 -12.460938 2.84375 -13.695312 2.84375 -14.9375 C 2.84375 -15.476562 2.828125 -16.007812 2.796875 -16.53125 C 2.773438 -17.050781 2.765625 -17.582031 2.765625 -18.125 C 2.765625 -18.457031 2.769531 -18.773438 2.78125 -19.078125 C 2.789062 -19.390625 2.800781 -19.710938 2.8125 -20.046875 C 2.8125 -20.140625 2.8125 -20.269531 2.8125 -20.4375 C 2.8125 -20.601562 2.816406 -20.769531 2.828125 -20.9375 C 2.835938 -21.113281 2.859375 -21.273438 2.890625 -21.421875 C 2.921875 -21.566406 2.960938 -21.679688 3.015625 -21.765625 C 3.140625 -21.859375 3.296875 -21.925781 3.484375 -21.96875 C 3.867188 -22 4.257812 -22.003906 4.65625 -21.984375 C 5.0625 -21.972656 5.46875 -21.984375 5.875 -22.015625 C 7.414062 -22.117188 8.957031 -22.195312 10.5 -22.25 C 12.039062 -22.3125 13.585938 -22.34375 15.140625 -22.34375 C 15.546875 -22.34375 15.851562 -22.328125 16.0625 -22.296875 C 16.28125 -22.265625 16.429688 -22.191406 16.515625 -22.078125 C 16.597656 -21.960938 16.644531 -21.785156 16.65625 -21.546875 C 16.664062 -21.316406 16.671875 -21.019531 16.671875 -20.65625 C 16.671875 -20.039062 16.671875 -19.546875 16.671875 -19.171875 C 16.671875 -18.804688 16.609375 -18.523438 16.484375 -18.328125 C 16.359375 -18.140625 16.140625 -18.003906 15.828125 -17.921875 C 15.523438 -17.847656 15.0625 -17.800781 14.4375 -17.78125 C 13.601562 -17.757812 12.773438 -17.75 11.953125 -17.75 C 11.128906 -17.75 10.300781 -17.75 9.46875 -17.75 C 9.28125 -17.75 9.078125 -17.753906 8.859375 -17.765625 C 8.648438 -17.773438 8.453125 -17.757812 8.265625 -17.71875 C 8.078125 -17.6875 7.921875 -17.609375 7.796875 -17.484375 C 7.671875 -17.367188 7.609375 -17.1875 7.609375 -16.9375 C 7.609375 -16.101562 7.644531 -15.453125 7.71875 -14.984375 C 7.800781 -14.523438 7.972656 -14.175781 8.234375 -13.9375 C 8.492188 -13.707031 8.863281 -13.566406 9.34375 -13.515625 C 9.832031 -13.472656 10.472656 -13.453125 11.265625 -13.453125 C 11.847656 -13.453125 12.414062 -13.503906 12.96875 -13.609375 C 13.519531 -13.710938 14.085938 -13.765625 14.671875 -13.765625 C 14.878906 -13.765625 15.03125 -13.660156 15.125 -13.453125 C 15.226562 -13.253906 15.296875 -13.015625 15.328125 -12.734375 C 15.359375 -12.453125 15.375 -12.171875 15.375 -11.890625 C 15.375 -11.609375 15.375 -11.394531 15.375 -11.25 C 15.375 -10.976562 15.367188 -10.6875 15.359375 -10.375 C 15.347656 -10.0625 15.21875 -9.828125 14.96875 -9.671875 C 14.726562 -9.515625 14.378906 -9.414062 13.921875 -9.375 C 13.472656 -9.34375 12.976562 -9.316406 12.4375 -9.296875 C 11.894531 -9.273438 11.347656 -9.265625 10.796875 -9.265625 C 10.242188 -9.265625 9.738281 -9.226562 9.28125 -9.15625 C 8.820312 -9.09375 8.445312 -8.960938 8.15625 -8.765625 C 7.875 -8.578125 7.734375 -8.289062 7.734375 -7.90625 C 7.734375 -6.988281 7.742188 -6.296875 7.765625 -5.828125 C 7.796875 -5.367188 7.90625 -5.039062 8.09375 -4.84375 C 8.289062 -4.65625 8.609375 -4.5625 9.046875 -4.5625 C 9.484375 -4.5625 10.109375 -4.5625 10.921875 -4.5625 C 11.421875 -4.5625 11.953125 -4.535156 12.515625 -4.484375 C 13.078125 -4.441406 13.613281 -4.398438 14.125 -4.359375 C 14.394531 -4.316406 14.664062 -4.289062 14.9375 -4.28125 C 15.207031 -4.269531 15.472656 -4.234375 15.734375 -4.171875 C 15.992188 -4.117188 16.207031 -4.019531 16.375 -3.875 C 16.550781 -3.726562 16.679688 -3.503906 16.765625 -3.203125 C 16.835938 -2.785156 16.898438 -2.378906 16.953125 -1.984375 C 17.015625 -1.585938 17.046875 -1.1875 17.046875 -0.78125 C 17.046875 -0.457031 16.8125 -0.234375 16.34375 -0.109375 C 15.882812 0.00390625 15.347656 0.0664062 14.734375 0.078125 C 14.128906 0.0976562 13.539062 0.0859375 12.96875 0.046875 C 12.394531 0.015625 12.003906 0 11.796875 0 Z M 9.734375 0 "/></g></g></g><g fill="#000000" fill-opacity="1"><g transform="translate(207.031501, 51.177206)"><g><path d="M 9.125 0.640625 C 8.945312 0.640625 8.644531 0.570312 8.21875 0.4375 C 7.789062 0.300781 7.304688 0.144531 6.765625 -0.03125 C 6.222656 -0.21875 5.648438 -0.4375 5.046875 -0.6875 C 4.453125 -0.945312 3.910156 -1.1875 3.421875 -1.40625 C 2.941406 -1.632812 2.539062 -1.847656 2.21875 -2.046875 C 1.90625 -2.253906 1.75 -2.414062 1.75 -2.53125 C 1.75 -2.644531 1.875 -2.894531 2.125 -3.28125 C 2.375 -3.664062 2.65625 -4.054688 2.96875 -4.453125 C 3.289062 -4.859375 3.613281 -5.21875 3.9375 -5.53125 C 4.257812 -5.851562 4.476562 -6.015625 4.59375 -6.015625 C 4.6875 -6.015625 4.851562 -5.925781 5.09375 -5.75 C 5.34375 -5.570312 5.648438 -5.378906 6.015625 -5.171875 C 6.378906 -4.972656 6.8125 -4.785156 7.3125 -4.609375 C 7.820312 -4.441406 8.367188 -4.359375 8.953125 -4.359375 C 9.109375 -4.359375 9.332031 -4.429688 9.625 -4.578125 C 9.925781 -4.722656 10.234375 -4.894531 10.546875 -5.09375 C 10.859375 -5.300781 11.132812 -5.515625 11.375 -5.734375 C 11.613281 -5.960938 11.753906 -6.144531 11.796875 -6.28125 C 11.734375 -6.507812 11.59375 -6.734375 11.375 -6.953125 C 11.15625 -7.179688 10.957031 -7.375 10.78125 -7.53125 C 10.550781 -7.71875 10.316406 -7.910156 10.078125 -8.109375 C 9.847656 -8.316406 9.617188 -8.507812 9.390625 -8.6875 C 9.035156 -8.914062 8.65625 -9.097656 8.25 -9.234375 C 7.84375 -9.367188 7.457031 -9.515625 7.09375 -9.671875 C 5.96875 -10.140625 5.035156 -10.679688 4.296875 -11.296875 C 3.566406 -11.921875 2.96875 -12.796875 2.5 -13.921875 C 2.382812 -14.222656 2.253906 -14.566406 2.109375 -14.953125 C 1.960938 -15.347656 1.890625 -15.707031 1.890625 -16.03125 C 1.890625 -16.269531 1.945312 -16.535156 2.0625 -16.828125 C 2.175781 -17.128906 2.28125 -17.390625 2.375 -17.609375 C 2.476562 -17.878906 2.585938 -18.160156 2.703125 -18.453125 C 2.816406 -18.742188 2.984375 -19.003906 3.203125 -19.234375 C 3.523438 -19.597656 3.984375 -19.984375 4.578125 -20.390625 C 5.171875 -20.796875 5.8125 -21.164062 6.5 -21.5 C 7.1875 -21.84375 7.867188 -22.117188 8.546875 -22.328125 C 9.222656 -22.546875 9.800781 -22.65625 10.28125 -22.65625 C 12.3125 -22.65625 14.101562 -22.078125 15.65625 -20.921875 C 15.738281 -20.859375 15.847656 -20.78125 15.984375 -20.6875 C 16.117188 -20.59375 16.25 -20.484375 16.375 -20.359375 C 16.5 -20.242188 16.613281 -20.128906 16.71875 -20.015625 C 16.820312 -19.898438 16.875 -19.796875 16.875 -19.703125 C 16.875 -19.523438 16.753906 -19.257812 16.515625 -18.90625 C 16.273438 -18.5625 15.992188 -18.210938 15.671875 -17.859375 C 15.347656 -17.515625 15.019531 -17.210938 14.6875 -16.953125 C 14.363281 -16.691406 14.117188 -16.5625 13.953125 -16.5625 C 13.671875 -16.5625 13.367188 -16.628906 13.046875 -16.765625 C 12.734375 -16.898438 12.410156 -17.039062 12.078125 -17.1875 C 11.753906 -17.332031 11.429688 -17.46875 11.109375 -17.59375 C 10.796875 -17.71875 10.484375 -17.78125 10.171875 -17.78125 C 10.054688 -17.78125 9.863281 -17.722656 9.59375 -17.609375 C 9.320312 -17.503906 9.050781 -17.375 8.78125 -17.21875 C 8.519531 -17.070312 8.28125 -16.910156 8.0625 -16.734375 C 7.851562 -16.554688 7.75 -16.410156 7.75 -16.296875 C 7.75 -16.085938 7.953125 -15.800781 8.359375 -15.4375 C 8.773438 -15.082031 9.296875 -14.707031 9.921875 -14.3125 C 10.546875 -13.914062 11.226562 -13.503906 11.96875 -13.078125 C 12.707031 -12.648438 13.410156 -12.238281 14.078125 -11.84375 C 14.742188 -11.457031 15.332031 -11.109375 15.84375 -10.796875 C 16.363281 -10.492188 16.707031 -10.253906 16.875 -10.078125 C 16.988281 -9.941406 17.113281 -9.710938 17.25 -9.390625 C 17.382812 -9.078125 17.507812 -8.734375 17.625 -8.359375 C 17.75 -7.992188 17.851562 -7.632812 17.9375 -7.28125 C 18.03125 -6.9375 18.078125 -6.679688 18.078125 -6.515625 C 18.078125 -5.960938 17.929688 -5.375 17.640625 -4.75 C 17.347656 -4.125 16.976562 -3.519531 16.53125 -2.9375 C 16.082031 -2.351562 15.601562 -1.828125 15.09375 -1.359375 C 14.582031 -0.898438 14.082031 -0.546875 13.59375 -0.296875 C 13.34375 -0.171875 13.003906 -0.0703125 12.578125 0 C 12.148438 0.0625 11.71875 0.113281 11.28125 0.15625 C 10.851562 0.207031 10.453125 0.257812 10.078125 0.3125 C 9.710938 0.375 9.460938 0.484375 9.328125 0.640625 Z M 9.125 0.640625 "/></g></g></g><g fill="#000000" fill-opacity="1"><g transform="translate(237.805971, 51.177206)"><g><path d="M 12.46875 -7.0625 C 12.46875 -6.476562 12.429688 -5.894531 12.359375 -5.3125 C 12.296875 -4.726562 12.242188 -4.148438 12.203125 -3.578125 C 12.203125 -3.554688 12.191406 -3.363281 12.171875 -3 C 12.148438 -2.644531 12.109375 -2.242188 12.046875 -1.796875 C 11.992188 -1.359375 11.914062 -0.9375 11.8125 -0.53125 C 11.71875 -0.132812 11.601562 0.0976562 11.46875 0.171875 C 11.300781 0.265625 11.09375 0.3125 10.84375 0.3125 C 9.789062 0.3125 8.742188 0.207031 7.703125 0 C 7.347656 -0.0703125 7.082031 -0.25 6.90625 -0.53125 C 6.738281 -0.8125 6.632812 -1.128906 6.59375 -1.484375 C 6.550781 -1.847656 6.539062 -2.222656 6.5625 -2.609375 C 6.582031 -3.003906 6.59375 -3.335938 6.59375 -3.609375 C 6.59375 -4.671875 6.582031 -5.738281 6.5625 -6.8125 C 6.539062 -7.882812 6.53125 -8.953125 6.53125 -10.015625 C 6.53125 -10.867188 6.597656 -11.710938 6.734375 -12.546875 C 6.867188 -13.378906 6.9375 -14.222656 6.9375 -15.078125 C 6.9375 -15.890625 6.925781 -16.484375 6.90625 -16.859375 C 6.894531 -17.242188 6.796875 -17.5 6.609375 -17.625 C 6.421875 -17.75 6.113281 -17.796875 5.6875 -17.765625 C 5.269531 -17.734375 4.648438 -17.71875 3.828125 -17.71875 C 3.578125 -17.71875 3.269531 -17.703125 2.90625 -17.671875 C 2.539062 -17.648438 2.179688 -17.648438 1.828125 -17.671875 C 1.484375 -17.703125 1.179688 -17.796875 0.921875 -17.953125 C 0.671875 -18.109375 0.546875 -18.359375 0.546875 -18.703125 C 0.546875 -18.898438 0.5625 -19.1875 0.59375 -19.5625 C 0.625 -19.945312 0.671875 -20.328125 0.734375 -20.703125 C 0.804688 -21.078125 0.914062 -21.40625 1.0625 -21.6875 C 1.207031 -21.96875 1.40625 -22.109375 1.65625 -22.109375 C 2.082031 -22.109375 2.507812 -22.085938 2.9375 -22.046875 C 3.363281 -22.015625 3.78125 -22 4.1875 -22 C 4.882812 -22 5.582031 -22.0625 6.28125 -22.1875 C 6.976562 -22.3125 7.675781 -22.375 8.375 -22.375 L 11.421875 -22.375 C 12.253906 -22.375 13.070312 -22.351562 13.875 -22.3125 C 14.675781 -22.269531 15.492188 -22.234375 16.328125 -22.203125 C 16.523438 -22.203125 16.773438 -22.1875 17.078125 -22.15625 C 17.390625 -22.125 17.601562 -22.019531 17.71875 -21.84375 C 17.820312 -21.707031 17.898438 -21.5 17.953125 -21.21875 C 18.015625 -20.9375 18.054688 -20.628906 18.078125 -20.296875 C 18.109375 -19.972656 18.128906 -19.65625 18.140625 -19.34375 C 18.148438 -19.039062 18.15625 -18.8125 18.15625 -18.65625 C 18.15625 -18.363281 18.097656 -18.148438 17.984375 -18.015625 C 17.867188 -17.878906 17.726562 -17.796875 17.5625 -17.765625 C 17.394531 -17.734375 17.203125 -17.726562 16.984375 -17.75 C 16.773438 -17.769531 16.566406 -17.78125 16.359375 -17.78125 C 16.222656 -17.78125 15.957031 -17.78125 15.5625 -17.78125 C 15.175781 -17.78125 14.773438 -17.769531 14.359375 -17.75 C 13.941406 -17.726562 13.5625 -17.679688 13.21875 -17.609375 C 12.875 -17.546875 12.648438 -17.457031 12.546875 -17.34375 C 12.410156 -17.164062 12.320312 -16.90625 12.28125 -16.5625 C 12.25 -16.226562 12.222656 -15.957031 12.203125 -15.75 C 12.160156 -15.4375 12.117188 -15.125 12.078125 -14.8125 C 12.046875 -14.507812 12.03125 -14.203125 12.03125 -13.890625 C 12.03125 -13.234375 12.101562 -12.582031 12.25 -11.9375 C 12.394531 -11.300781 12.46875 -10.644531 12.46875 -9.96875 Z M 12.46875 -7.0625 "/></g></g></g><g fill="#000000" fill-opacity="1"><g transform="translate(268.609482, 51.177206)"><g><path d="M 9.671875 -5.3125 C 9.578125 -5.3125 9.421875 -5.296875 9.203125 -5.265625 C 8.992188 -5.242188 8.78125 -5.210938 8.5625 -5.171875 C 8.351562 -5.128906 8.144531 -5.082031 7.9375 -5.03125 C 7.738281 -4.988281 7.59375 -4.945312 7.5 -4.90625 C 7.09375 -4.738281 6.785156 -4.378906 6.578125 -3.828125 C 6.378906 -3.285156 6.1875 -2.722656 6 -2.140625 C 5.8125 -1.566406 5.582031 -1.050781 5.3125 -0.59375 C 5.039062 -0.132812 4.625 0.09375 4.0625 0.09375 C 3.925781 0.09375 3.648438 0.0820312 3.234375 0.0625 C 2.816406 0.0390625 2.394531 0.00390625 1.96875 -0.046875 C 1.550781 -0.109375 1.171875 -0.191406 0.828125 -0.296875 C 0.484375 -0.410156 0.3125 -0.570312 0.3125 -0.78125 C 0.3125 -1.03125 0.390625 -1.394531 0.546875 -1.875 C 0.703125 -2.363281 0.875 -2.882812 1.0625 -3.4375 C 1.257812 -3.988281 1.457031 -4.539062 1.65625 -5.09375 C 1.863281 -5.644531 2.03125 -6.097656 2.15625 -6.453125 C 2.363281 -7.179688 2.503906 -7.921875 2.578125 -8.671875 C 2.660156 -9.429688 2.789062 -10.179688 2.96875 -10.921875 C 3.375 -12.523438 3.820312 -14.128906 4.3125 -15.734375 C 4.8125 -17.347656 5.359375 -18.929688 5.953125 -20.484375 C 6.015625 -20.640625 6.082031 -20.816406 6.15625 -21.015625 C 6.238281 -21.222656 6.332031 -21.421875 6.4375 -21.609375 C 6.539062 -21.804688 6.675781 -21.96875 6.84375 -22.09375 C 7.007812 -22.21875 7.1875 -22.28125 7.375 -22.28125 C 7.59375 -22.28125 7.984375 -22.273438 8.546875 -22.265625 C 9.109375 -22.253906 9.6875 -22.238281 10.28125 -22.21875 C 10.882812 -22.207031 11.429688 -22.175781 11.921875 -22.125 C 12.421875 -22.070312 12.71875 -22.007812 12.8125 -21.9375 C 12.90625 -21.851562 13 -21.65625 13.09375 -21.34375 C 13.195312 -21.039062 13.289062 -20.703125 13.375 -20.328125 C 13.46875 -19.960938 13.546875 -19.601562 13.609375 -19.25 C 13.679688 -18.90625 13.742188 -18.65625 13.796875 -18.5 C 14.015625 -17.863281 14.265625 -17.25 14.546875 -16.65625 C 14.828125 -16.070312 15.082031 -15.457031 15.3125 -14.8125 C 15.5625 -14.175781 15.773438 -13.53125 15.953125 -12.875 C 16.140625 -12.226562 16.320312 -11.578125 16.5 -10.921875 C 16.695312 -10.285156 16.960938 -9.492188 17.296875 -8.546875 C 17.640625 -7.609375 17.988281 -6.640625 18.34375 -5.640625 C 18.707031 -4.648438 19.023438 -3.703125 19.296875 -2.796875 C 19.566406 -1.898438 19.703125 -1.160156 19.703125 -0.578125 C 19.703125 -0.347656 19.5 -0.1875 19.09375 -0.09375 C 18.6875 -0.0078125 18.238281 0.0390625 17.75 0.0625 C 17.269531 0.0820312 16.816406 0.078125 16.390625 0.046875 C 15.960938 0.015625 15.71875 0 15.65625 0 C 15.425781 0 15.207031 -0.00390625 15 -0.015625 C 14.800781 -0.0234375 14.625 -0.117188 14.46875 -0.296875 C 14.3125 -0.441406 14.1875 -0.722656 14.09375 -1.140625 C 14.007812 -1.554688 13.921875 -2.003906 13.828125 -2.484375 C 13.734375 -2.960938 13.628906 -3.40625 13.515625 -3.8125 C 13.410156 -4.226562 13.28125 -4.515625 13.125 -4.671875 C 12.988281 -4.796875 12.769531 -4.898438 12.46875 -4.984375 C 12.175781 -5.066406 11.847656 -5.132812 11.484375 -5.1875 C 11.128906 -5.238281 10.78125 -5.269531 10.4375 -5.28125 C 10.101562 -5.300781 9.847656 -5.3125 9.671875 -5.3125 Z M 10.953125 -9.203125 C 11.109375 -9.203125 11.289062 -9.222656 11.5 -9.265625 C 11.71875 -9.304688 11.863281 -9.414062 11.9375 -9.59375 C 11.9375 -9.894531 11.890625 -10.234375 11.796875 -10.609375 C 11.597656 -11.222656 11.367188 -11.828125 11.109375 -12.421875 C 10.847656 -13.023438 10.628906 -13.648438 10.453125 -14.296875 C 10.316406 -14.796875 10.21875 -15.304688 10.15625 -15.828125 C 10.101562 -16.359375 9.984375 -16.863281 9.796875 -17.34375 C 9.753906 -17.28125 9.671875 -17.046875 9.546875 -16.640625 C 9.421875 -16.234375 9.257812 -15.742188 9.0625 -15.171875 C 8.875 -14.609375 8.679688 -13.992188 8.484375 -13.328125 C 8.285156 -12.671875 8.09375 -12.066406 7.90625 -11.515625 C 7.726562 -10.960938 7.585938 -10.5 7.484375 -10.125 C 7.378906 -9.75 7.328125 -9.550781 7.328125 -9.53125 C 7.328125 -9.351562 7.4375 -9.253906 7.65625 -9.234375 C 7.875 -9.210938 8.039062 -9.203125 8.15625 -9.203125 Z M 10.953125 -9.203125 "/></g></g></g><g fill="#000000" fill-opacity="1"><g transform="translate(300.022961, 51.177206)"><g><path d="M 9.46875 0 C 8.851562 0 8.238281 0.0390625 7.625 0.125 C 7.019531 0.21875 6.40625 0.265625 5.78125 0.265625 C 5.582031 0.265625 5.300781 0.257812 4.9375 0.25 C 4.570312 0.238281 4.203125 0.203125 3.828125 0.140625 C 3.460938 0.0859375 3.140625 0 2.859375 -0.125 C 2.578125 -0.25 2.4375 -0.441406 2.4375 -0.703125 C 2.4375 -1.429688 2.46875 -2.175781 2.53125 -2.9375 C 2.601562 -3.707031 2.640625 -4.484375 2.640625 -5.265625 C 2.640625 -6.347656 2.632812 -7.441406 2.625 -8.546875 C 2.613281 -9.648438 2.5625 -10.742188 2.46875 -11.828125 C 2.425781 -12.234375 2.378906 -12.648438 2.328125 -13.078125 C 2.285156 -13.503906 2.265625 -13.929688 2.265625 -14.359375 C 2.265625 -14.640625 2.28125 -15.09375 2.3125 -15.71875 C 2.34375 -16.351562 2.378906 -17.023438 2.421875 -17.734375 C 2.472656 -18.441406 2.523438 -19.113281 2.578125 -19.75 C 2.640625 -20.394531 2.691406 -20.851562 2.734375 -21.125 C 2.773438 -21.351562 2.878906 -21.523438 3.046875 -21.640625 C 3.179688 -21.753906 3.429688 -21.84375 3.796875 -21.90625 C 4.171875 -21.976562 4.566406 -22.035156 4.984375 -22.078125 C 5.398438 -22.117188 5.796875 -22.148438 6.171875 -22.171875 C 6.546875 -22.203125 6.832031 -22.21875 7.03125 -22.21875 C 7.363281 -22.21875 7.597656 -22.070312 7.734375 -21.78125 C 7.867188 -21.5 7.960938 -21.160156 8.015625 -20.765625 C 8.078125 -20.378906 8.09375 -19.976562 8.0625 -19.5625 C 8.03125 -19.144531 8.015625 -18.820312 8.015625 -18.59375 C 8.015625 -17.445312 7.96875 -16.304688 7.875 -15.171875 C 7.78125 -14.046875 7.734375 -12.898438 7.734375 -11.734375 C 7.734375 -10.785156 7.757812 -9.84375 7.8125 -8.90625 C 7.875 -7.96875 7.90625 -7.023438 7.90625 -6.078125 C 7.90625 -5.816406 7.914062 -5.566406 7.9375 -5.328125 C 7.96875 -5.085938 8.128906 -4.910156 8.421875 -4.796875 C 8.929688 -4.554688 9.5 -4.421875 10.125 -4.390625 C 10.75 -4.367188 11.394531 -4.359375 12.0625 -4.359375 C 12.738281 -4.359375 13.390625 -4.328125 14.015625 -4.265625 C 14.648438 -4.210938 15.226562 -4.0625 15.75 -3.8125 C 15.9375 -3.707031 16.082031 -3.523438 16.1875 -3.265625 C 16.300781 -3.003906 16.382812 -2.722656 16.4375 -2.421875 C 16.5 -2.117188 16.539062 -1.816406 16.5625 -1.515625 C 16.582031 -1.222656 16.59375 -0.976562 16.59375 -0.78125 C 16.59375 -0.457031 16.367188 -0.234375 15.921875 -0.109375 C 15.472656 0.00390625 14.960938 0.0664062 14.390625 0.078125 C 13.816406 0.0976562 13.257812 0.0859375 12.71875 0.046875 C 12.175781 0.015625 11.789062 0 11.5625 0 Z M 9.46875 0 "/></g></g></g><g fill="#000000" fill-opacity="1"><g transform="translate(329.548453, 51.177206)"><g><path d="M 12.46875 -7.0625 C 12.46875 -6.476562 12.429688 -5.894531 12.359375 -5.3125 C 12.296875 -4.726562 12.242188 -4.148438 12.203125 -3.578125 C 12.203125 -3.554688 12.191406 -3.363281 12.171875 -3 C 12.148438 -2.644531 12.109375 -2.242188 12.046875 -1.796875 C 11.992188 -1.359375 11.914062 -0.9375 11.8125 -0.53125 C 11.71875 -0.132812 11.601562 0.0976562 11.46875 0.171875 C 11.300781 0.265625 11.09375 0.3125 10.84375 0.3125 C 9.789062 0.3125 8.742188 0.207031 7.703125 0 C 7.347656 -0.0703125 7.082031 -0.25 6.90625 -0.53125 C 6.738281 -0.8125 6.632812 -1.128906 6.59375 -1.484375 C 6.550781 -1.847656 6.539062 -2.222656 6.5625 -2.609375 C 6.582031 -3.003906 6.59375 -3.335938 6.59375 -3.609375 C 6.59375 -4.671875 6.582031 -5.738281 6.5625 -6.8125 C 6.539062 -7.882812 6.53125 -8.953125 6.53125 -10.015625 C 6.53125 -10.867188 6.597656 -11.710938 6.734375 -12.546875 C 6.867188 -13.378906 6.9375 -14.222656 6.9375 -15.078125 C 6.9375 -15.890625 6.925781 -16.484375 6.90625 -16.859375 C 6.894531 -17.242188 6.796875 -17.5 6.609375 -17.625 C 6.421875 -17.75 6.113281 -17.796875 5.6875 -17.765625 C 5.269531 -17.734375 4.648438 -17.71875 3.828125 -17.71875 C 3.578125 -17.71875 3.269531 -17.703125 2.90625 -17.671875 C 2.539062 -17.648438 2.179688 -17.648438 1.828125 -17.671875 C 1.484375 -17.703125 1.179688 -17.796875 0.921875 -17.953125 C 0.671875 -18.109375 0.546875 -18.359375 0.546875 -18.703125 C 0.546875 -18.898438 0.5625 -19.1875 0.59375 -19.5625 C 0.625 -19.945312 0.671875 -20.328125 0.734375 -20.703125 C 0.804688 -21.078125 0.914062 -21.40625 1.0625 -21.6875 C 1.207031 -21.96875 1.40625 -22.109375 1.65625 -22.109375 C 2.082031 -22.109375 2.507812 -22.085938 2.9375 -22.046875 C 3.363281 -22.015625 3.78125 -22 4.1875 -22 C 4.882812 -22 5.582031 -22.0625 6.28125 -22.1875 C 6.976562 -22.3125 7.675781 -22.375 8.375 -22.375 L 11.421875 -22.375 C 12.253906 -22.375 13.070312 -22.351562 13.875 -22.3125 C 14.675781 -22.269531 15.492188 -22.234375 16.328125 -22.203125 C 16.523438 -22.203125 16.773438 -22.1875 17.078125 -22.15625 C 17.390625 -22.125 17.601562 -22.019531 17.71875 -21.84375 C 17.820312 -21.707031 17.898438 -21.5 17.953125 -21.21875 C 18.015625 -20.9375 18.054688 -20.628906 18.078125 -20.296875 C 18.109375 -19.972656 18.128906 -19.65625 18.140625 -19.34375 C 18.148438 -19.039062 18.15625 -18.8125 18.15625 -18.65625 C 18.15625 -18.363281 18.097656 -18.148438 17.984375 -18.015625 C 17.867188 -17.878906 17.726562 -17.796875 17.5625 -17.765625 C 17.394531 -17.734375 17.203125 -17.726562 16.984375 -17.75 C 16.773438 -17.769531 16.566406 -17.78125 16.359375 -17.78125 C 16.222656 -17.78125 15.957031 -17.78125 15.5625 -17.78125 C 15.175781 -17.78125 14.773438 -17.769531 14.359375 -17.75 C 13.941406 -17.726562 13.5625 -17.679688 13.21875 -17.609375 C 12.875 -17.546875 12.648438 -17.457031 12.546875 -17.34375 C 12.410156 -17.164062 12.320312 -16.90625 12.28125 -16.5625 C 12.25 -16.226562 12.222656 -15.957031 12.203125 -15.75 C 12.160156 -15.4375 12.117188 -15.125 12.078125 -14.8125 C 12.046875 -14.507812 12.03125 -14.203125 12.03125 -13.890625 C 12.03125 -13.234375 12.101562 -12.582031 12.25 -11.9375 C 12.394531 -11.300781 12.46875 -10.644531 12.46875 -9.96875 Z M 12.46875 -7.0625 "/></g></g></g><path fill="#393536" d="M 53.484375 35.269531 L 36.722656 7.054688 L 53.035156 36.046875 Z M 53.484375 35.269531 " fill-opacity="1" fill-rule="nonzero"/><path fill="#393536" d="M 46.003906 48.222656 L 46.351562 47.621094 L 12.277344 38.925781 L 45.933594 48.34375 L 46.003906 48.222656 " fill-opacity="1" fill-rule="nonzero"/><path fill="#393536" d="M 57.046875 29.097656 L 49.410156 1.796875 L 56.582031 29.90625 Z M 57.046875 29.097656 " fill-opacity="1" fill-rule="nonzero"/><path fill="#393536" d="M 48.605469 43.71875 L 17.539062 26.234375 L 48.183594 44.445312 Z M 48.605469 43.71875 " fill-opacity="1" fill-rule="nonzero"/><path fill="#393536" d="M 50.875 39.789062 L 25.875 15.386719 L 50.429688 40.554688 Z M 50.875 39.789062 " fill-opacity="1" fill-rule="nonzero"/><g clip-path="url(#8217b9c4c2)"><path fill="#393536" d="M 62.980469 18.820312 L 63.222656 19.238281 L 62.980469 0.0195312 L 62.738281 19.238281 L 62.980469 18.820312 " fill-opacity="1" fill-rule="nonzero"/></g><path fill="#393536" d="M 69.378906 29.90625 L 76.550781 1.796875 L 68.914062 29.101562 Z M 69.378906 29.90625 " fill-opacity="1" fill-rule="nonzero"/><g clip-path="url(#d08a736507)"><path fill="#393536" d="M 82.183594 52.082031 L 82.660156 52.910156 L 115.460938 52.496094 Z M 82.183594 52.082031 " fill-opacity="1" fill-rule="nonzero"/></g><path fill="#393536" d="M 77.773438 44.449219 L 108.421875 26.234375 L 77.355469 43.71875 Z M 77.773438 44.449219 " fill-opacity="1" fill-rule="nonzero"/><path fill="#393536" d="M 79.953125 48.222656 L 80.023438 48.339844 L 113.679688 38.925781 L 79.609375 47.621094 L 79.953125 48.222656 " fill-opacity="1" fill-rule="nonzero"/><path fill="#393536" d="M 72.925781 36.050781 L 89.242188 7.054688 L 72.476562 35.269531 Z M 72.925781 36.050781 " fill-opacity="1" fill-rule="nonzero"/><path fill="#393536" d="M 75.527344 40.554688 L 100.089844 15.390625 L 75.085938 39.789062 Z M 75.527344 40.554688 " fill-opacity="1" fill-rule="nonzero"/><g clip-path="url(#dc5286938f)"><path fill="#393536" d="M 43.773438 52.082031 L 10.5 52.496094 L 43.300781 52.90625 Z M 43.773438 52.082031 " fill-opacity="1" fill-rule="nonzero"/></g><path fill="#393536" d="M 87.804688 77.625 L 100.085938 89.609375 L 88.394531 77.625 Z M 87.804688 77.625 " fill-opacity="1" fill-rule="nonzero"/><path fill="#393536" d="M 77.167969 77.625 L 89.242188 97.941406 L 77.808594 77.625 Z M 77.167969 77.625 " fill-opacity="1" fill-rule="nonzero"/><path fill="#393536" d="M 69.398438 77.625 L 76.550781 103.203125 L 70.027344 77.625 Z M 69.398438 77.625 " fill-opacity="1" fill-rule="nonzero"/><path fill="#393536" d="M 92.371094 69.730469 L 108.421875 78.757812 L 91.929688 68.964844 Z M 92.371094 69.730469 " fill-opacity="1" fill-rule="nonzero"/><path fill="#393536" d="M 86.210938 59.066406 L 113.679688 66.070312 L 85.75 58.257812 Z M 86.210938 59.066406 " fill-opacity="1" fill-rule="nonzero"/><g clip-path="url(#34859ef625)"><path fill="#393536" d="M 62.980469 77.625 L 62.636719 77.625 L 62.980469 104.976562 L 63.320312 77.625 L 62.980469 77.625 " fill-opacity="1" fill-rule="nonzero"/></g><path fill="#393536" d="M 34.03125 68.960938 L 17.539062 78.757812 L 33.589844 69.726562 Z M 34.03125 68.960938 " fill-opacity="1" fill-rule="nonzero"/><path fill="#393536" d="M 37.566406 77.625 L 25.875 89.609375 L 38.152344 77.625 Z M 37.566406 77.625 " fill-opacity="1" fill-rule="nonzero"/><path fill="#393536" d="M 40.214844 58.253906 L 12.277344 66.070312 L 39.746094 59.058594 Z M 40.214844 58.253906 " fill-opacity="1" fill-rule="nonzero"/><path fill="#393536" d="M 48.152344 77.625 L 36.71875 97.941406 L 48.789062 77.625 Z M 48.152344 77.625 " fill-opacity="1" fill-rule="nonzero"/><path fill="#393536" d="M 55.933594 77.625 L 49.410156 103.203125 L 56.5625 77.625 Z M 55.933594 77.625 " fill-opacity="1" fill-rule="nonzero"/><path fill="#393536" d="M 62.980469 77.625 L 62.980469 77.074219 L 29.976562 77.074219 L 46.476562 48.5 L 62.980469 19.914062 L 79.480469 48.5 L 95.980469 77.074219 L 62.980469 77.074219 L 62.980469 78.171875 L 97.878906 78.171875 L 80.429688 47.949219 L 62.980469 17.722656 L 45.53125 47.949219 L 28.082031 78.171875 L 62.980469 78.171875 L 62.980469 77.625 " fill-opacity="1" fill-rule="nonzero"/><g clip-path="url(#ab58b31b4c)"><path fill="#000000" d="M 76.851562 62.726562 C 78.9375 54.964844 73.765625 46.671875 66.144531 44.902344 C 66.140625 44.902344 66.132812 44.894531 66.128906 44.894531 C 58.332031 42.820312 50.003906 47.96875 48.230469 55.554688 C 48.230469 55.558594 48.230469 55.566406 48.222656 55.566406 C 47.253906 59.234375 47.917969 63.503906 49.851562 66.640625 C 49.859375 66.648438 49.859375 66.652344 49.863281 66.660156 C 51.832031 69.9375 55.042969 72.390625 58.84375 73.371094 C 58.867188 73.378906 58.882812 73.382812 58.90625 73.390625 C 66.710938 75.492188 75.070312 70.339844 76.851562 62.738281 C 76.851562 62.730469 76.851562 62.730469 76.851562 62.726562 Z M 75.890625 61.769531 L 66.140625 56.148438 C 66.128906 56.144531 66.121094 56.140625 66.109375 56.132812 L 64.578125 55.25 L 74.46875 52.628906 C 75.957031 55.261719 76.523438 58.707031 75.890625 61.769531 Z M 66.035156 59.605469 L 64.683594 61.941406 L 62.078125 62.628906 L 59.734375 61.28125 L 59.042969 58.691406 L 60.398438 56.355469 L 63 55.667969 L 65.34375 57.015625 Z M 73.839844 51.609375 L 61.214844 54.957031 L 66.335938 46.144531 C 69.433594 47.039062 72.078125 49.007812 73.839844 51.609375 Z M 65.171875 45.859375 L 59.527344 55.566406 C 59.523438 55.578125 59.515625 55.582031 59.511719 55.59375 L 58.625 57.117188 L 55.992188 47.28125 C 58.636719 45.789062 62.097656 45.230469 65.171875 45.859375 Z M 54.964844 47.902344 L 58.332031 60.46875 L 49.476562 55.371094 C 50.375 52.285156 52.351562 49.65625 54.964844 47.902344 Z M 49.191406 56.527344 L 60.5 63.046875 L 50.617188 65.667969 C 49.121094 63.035156 48.558594 59.589844 49.191406 56.527344 Z M 51.242188 66.6875 L 63.863281 63.339844 L 58.746094 72.152344 C 55.644531 71.257812 53.003906 69.289062 51.242188 66.6875 Z M 59.90625 72.4375 L 65.550781 62.730469 C 65.558594 62.726562 65.5625 62.714844 65.5625 62.707031 L 66.449219 61.179688 L 69.082031 71.023438 C 66.445312 72.507812 62.984375 73.066406 59.90625 72.4375 Z M 70.113281 70.398438 L 66.753906 57.828125 L 75.609375 62.925781 C 74.703125 66.011719 72.726562 68.640625 70.113281 70.398438 Z M 70.113281 70.398438 " fill-opacity="1" fill-rule="nonzero"/></g></svg>